<svg xmlns="http://www.w3.org/2000/svg" viewBox="0 0 887.08 194.3"><defs><style>.cls-1{fill:#024ea6;}.cls-2{fill:none;}</style></defs><g id="Layer_2" data-name="Layer 2"><g id="Layer_1-2" data-name="Layer 1"><polygon class="cls-1" points="112 32.33 112 96.99 111.73 97.15 56 64.97 0.27 97.15 0 96.99 0 32.33 0.06 32.3 56 0 112 32.33"/><polygon class="cls-2" points="111.73 97.15 56 129.33 0.27 97.15 56 64.97 111.73 97.15"/><polygon class="cls-1" points="112 97.3 112 161.97 56 194.3 0 161.97 0 97.3 0.06 97.27 0.27 97.15 56 129.33 111.73 97.15 112 97.3"/><path class="cls-1" d="M232.36,77.36a23.89,23.89,0,0,0-7.57-5.1,23.27,23.27,0,0,0-9.28-1.85,24.3,24.3,0,0,0-9,1.62,21.05,21.05,0,0,0-7.23,4.59,21.38,21.38,0,0,0-4.79,7,22.33,22.33,0,0,0-1.74,8.91,20.08,20.08,0,0,0,1.85,8.6,21.07,21.07,0,0,0,5,6.83,23.88,23.88,0,0,0,7.26,4.48,23.56,23.56,0,0,0,8.66,1.62A22.32,22.32,0,0,0,226,111.66a23.69,23.69,0,0,0,8-6.55l5.18,7a31.85,31.85,0,0,1-10.48,7.66,32.24,32.24,0,0,1-25.31.38,30.27,30.27,0,0,1-16.38-16.42,30.88,30.88,0,0,1-2.4-12.18A27.85,27.85,0,0,1,187,79.8a29.69,29.69,0,0,1,6.8-9.43,32.07,32.07,0,0,1,21.76-8.46,30.65,30.65,0,0,1,12.25,2.43A31.28,31.28,0,0,1,237.77,71Z"/><path class="cls-1" d="M277.53,97.38H270.8a35.37,35.37,0,0,0-5.54.43,17.1,17.1,0,0,0-5.38,1.81v21.64h-8.43V63.61H281.8a22.41,22.41,0,0,1,7.27,1.12A16.48,16.48,0,0,1,294.84,68a14.81,14.81,0,0,1,3.8,5.33A18.3,18.3,0,0,1,300,80.61a16,16,0,0,1-3.55,10.74,18.08,18.08,0,0,1-9.82,5.72l4.48,9.2c.94,1.34,1.74,2.42,2.42,3.25a13.45,13.45,0,0,0,2,2,5.48,5.48,0,0,0,1.95,1,9,9,0,0,0,2.42.27l2.7-.08v8.58c-1.65,0-3.31-.05-5-.15a17.12,17.12,0,0,1-4.84-1,13.62,13.62,0,0,1-4.41-2.7,16.35,16.35,0,0,1-3.72-5.26Zm-17.65-6.24a13.88,13.88,0,0,1,5.33-1.91,43.12,43.12,0,0,1,5.56-.35h11a11.42,11.42,0,0,0,7.11-2.07c1.8-1.38,2.71-3.6,2.71-6.66a8.37,8.37,0,0,0-.78-3.75,6.78,6.78,0,0,0-2.08-2.49,8.58,8.58,0,0,0-3.1-1.38,16.67,16.67,0,0,0-3.86-.42H259.88Z"/><path class="cls-1" d="M334,89a75.54,75.54,0,0,0,9.47-12.06,69.91,69.91,0,0,0,6.57-13.29h9.66a107.5,107.5,0,0,1-9.55,17.7,122.1,122.1,0,0,1-11.94,15v25h-8.42v-25a121.52,121.52,0,0,1-11.95-15,106.64,106.64,0,0,1-9.54-17.7H318a69.12,69.12,0,0,0,6.57,13.3A75,75,0,0,0,334,89Z"/><path class="cls-1" d="M370.09,121.26V63.61h29.65a20.38,20.38,0,0,1,6.93,1.12A14.62,14.62,0,0,1,412,68a14.45,14.45,0,0,1,3.4,5.18,20.55,20.55,0,0,1,0,13.84A15.12,15.12,0,0,1,412,92.24a14.45,14.45,0,0,1-5.34,3.36,19.71,19.71,0,0,1-6.93,1.16H389.51a33.59,33.59,0,0,0-5.57.47,17.84,17.84,0,0,0-5.42,1.85v22.18Zm29.61-33q8.49,0,8.5-8.15,0-4.39-2.17-6.19t-6.33-1.81H378.52V90.58a14.56,14.56,0,0,1,5.37-1.93,40.44,40.44,0,0,1,5.6-.39Z"/><path class="cls-1" d="M451.48,72.11v49.15h-8.19V72.11H422.73v-8.5h49.08v8.5Z"/><path class="cls-1" d="M540.9,92.51a28.25,28.25,0,0,1-2.51,11.91,30.39,30.39,0,0,1-6.77,9.5,32,32,0,0,1-34.05,6.26,30.74,30.74,0,0,1-18.81-28.6,28,28,0,0,1,2.51-11.78,29.75,29.75,0,0,1,6.82-9.43,32.11,32.11,0,0,1,21.78-8.47,31.25,31.25,0,0,1,21.94,8.85,30.78,30.78,0,0,1,6.65,9.7A29.63,29.63,0,0,1,540.9,92.51Zm-8.42-.5a20.62,20.62,0,0,0-1.82-8.68,21.29,21.29,0,0,0-4.94-6.87A22.56,22.56,0,0,0,518.49,72a23.94,23.94,0,0,0-8.74-1.58,24.3,24.3,0,0,0-9,1.62,21.05,21.05,0,0,0-7.23,4.59,21.38,21.38,0,0,0-4.79,7A22.5,22.5,0,0,0,487,92.55a20.09,20.09,0,0,0,1.86,8.6,20.9,20.9,0,0,0,5,6.83,23.81,23.81,0,0,0,7.27,4.48,23.46,23.46,0,0,0,8.65,1.62,22.9,22.9,0,0,0,8.77-1.7,22.24,22.24,0,0,0,7.19-4.67,22.75,22.75,0,0,0,4.87-7A20.8,20.8,0,0,0,532.48,92Z"/><path d="M547.47,63.61h10.9l37,44.05v-44h8.43v57.65h-8.34l-33-39.65v39.65H554.2V71.72Z"/><path d="M635.74,62.6H645l27.75,58.66h-9.43l-3.79-8.42H642a41,41,0,0,0-7,.54,27.62,27.62,0,0,0-5.21,1.39,14.39,14.39,0,0,0-3.48,1.86,5.87,5.87,0,0,0-1.78,1.93l-1.47,2.7h-9.12l25-51.55Zm20,41.74L643.16,80,630.4,107.58a13.73,13.73,0,0,1,5.1-2.28,38.24,38.24,0,0,1,9.59-1Z"/><path d="M708,122.58q-12.37,0-19.16-6.18t-6.77-17.55V63.61h8.43V98.8q0,7.49,4.55,11.38t12.95,3.9q8.41,0,13-3.9t4.55-11.38V63.61H734V98.85q0,11.36-6.77,17.55T708,122.58Z"/><path d="M758.55,121.26h-8.42V63.61h8.42v43.05l29.29-43H798L779,90.73l10.36,15.54a17.61,17.61,0,0,0,4.91,5.33,6.82,6.82,0,0,0,4.06,1.16l2.39-.07v8.57h-3a28.85,28.85,0,0,1-3.83-.23,10.8,10.8,0,0,1-3.59-1.12,14.6,14.6,0,0,1-3.63-2.7,26.48,26.48,0,0,1-3.87-5.07l-8.73-14Z"/><path d="M840,97.38h-6.74a35.34,35.34,0,0,0-5.53.43,16.93,16.93,0,0,0-5.38,1.81v21.64h-8.43V63.61h30.35a22.45,22.45,0,0,1,7.27,1.12A16.48,16.48,0,0,1,857.28,68a14.78,14.78,0,0,1,3.79,5.33,18.49,18.49,0,0,1,1.36,7.27,16,16,0,0,1-3.55,10.74,18.12,18.12,0,0,1-9.82,5.72l4.48,9.2c.94,1.34,1.74,2.42,2.42,3.25a13,13,0,0,0,1.95,2,5.4,5.4,0,0,0,2,1,8.92,8.92,0,0,0,2.41.27l2.71-.08v8.58c-1.65,0-3.31-.05-5-.15a17,17,0,0,1-4.84-1,13.77,13.77,0,0,1-4.42-2.7,16.48,16.48,0,0,1-3.71-5.26Zm-17.65-6.24a13.88,13.88,0,0,1,5.33-1.91,43,43,0,0,1,5.56-.35h11a11.43,11.43,0,0,0,7.11-2.07q2.7-2.07,2.7-6.66a8.23,8.23,0,0,0-.77-3.75,6.71,6.71,0,0,0-2.09-2.49,8.46,8.46,0,0,0-3.09-1.38,16.67,16.67,0,0,0-3.86-.42H822.32Z"/><path d="M878.81,121.26V63.61h8.27v57.65Z"/></g></g></svg>